<svg width="430" height="429" viewBox="0 0 430 429" fill="none" xmlns="http://www.w3.org/2000/svg">
    <path d="M22.0983 367.762C25.9899 367.762 29.4366 368.73 32.4387 370.666C35.4963 372.602 37.9146 375.285 39.6936 378.715C41.4726 382.089 42.3621 385.989 42.3621 390.415C42.3621 394.84 41.4726 398.768 39.6936 402.198C37.9146 405.628 35.5241 408.338 32.5221 410.33C29.52 412.266 26.1288 413.234 22.3485 413.234C20.2359 413.234 18.2346 412.902 16.3444 412.238C14.4543 411.519 12.7865 410.634 11.341 409.583C9.8956 408.477 8.70035 407.315 7.75526 406.098C6.86577 404.881 6.30983 403.747 6.08746 402.696L8.33899 401.617V408.836C8.33899 409.998 7.92204 410.994 7.08814 411.823C6.30984 412.598 5.33695 412.985 4.1695 412.985C2.94644 412.985 1.94576 412.598 1.16746 411.823C0.389153 411.049 0 410.053 0 408.836V355.232C0 354.015 0.389153 353.019 1.16746 352.245C1.94576 351.415 2.94644 351 4.1695 351C5.33695 351 6.30984 351.415 7.08814 352.245C7.92204 353.019 8.33899 354.015 8.33899 355.232V378.549L7.00475 377.802C7.17153 376.751 7.69967 375.672 8.58916 374.566C9.47865 373.404 10.5905 372.298 11.9248 371.247C13.3146 370.196 14.8712 369.366 16.5946 368.757C18.3736 368.094 20.2082 367.762 22.0983 367.762ZM21.181 375.396C18.5126 375.396 16.1776 376.06 14.1763 377.387C12.2305 378.715 10.7017 380.513 9.58984 382.781C8.47797 384.994 7.92204 387.538 7.92204 390.415C7.92204 393.291 8.47797 395.891 9.58984 398.215C10.7017 400.483 12.2305 402.281 14.1763 403.609C16.1776 404.936 18.5126 405.6 21.181 405.6C23.7939 405.6 26.0732 404.936 28.019 403.609C29.9648 402.281 31.4936 400.455 32.6055 398.132C33.7729 395.809 34.3566 393.236 34.3566 390.415C34.3566 387.538 33.7729 384.994 32.6055 382.781C31.4936 380.513 29.9648 378.715 28.019 377.387C26.0732 376.06 23.7939 375.396 21.181 375.396Z"
          fill="white"/>
    <path d="M93.8215 390.581C93.8215 395.006 92.8486 398.934 90.9028 402.364C88.957 405.738 86.3164 408.394 82.9808 410.33C79.6452 412.266 75.8926 413.234 71.7231 413.234C67.5536 413.234 63.8011 412.266 60.4655 410.33C57.1299 408.394 54.4614 405.738 52.4601 402.364C50.5143 398.934 49.5414 395.006 49.5414 390.581C49.5414 386.1 50.5143 382.172 52.4601 378.798C54.4614 375.368 57.1299 372.685 60.4655 370.749C63.8011 368.757 67.5536 367.762 71.7231 367.762C75.8926 367.762 79.6452 368.757 82.9808 370.749C86.3164 372.685 88.957 375.368 90.9028 378.798C92.8486 382.172 93.8215 386.1 93.8215 390.581ZM85.4825 390.581C85.4825 387.538 84.8709 384.911 83.6479 382.698C82.4248 380.43 80.757 378.66 78.6445 377.387C76.5875 376.06 74.2804 375.396 71.7231 375.396C69.1658 375.396 66.8309 376.06 64.7184 377.387C62.6058 378.66 60.938 380.43 59.715 382.698C58.4919 384.911 57.8804 387.538 57.8804 390.581C57.8804 393.513 58.4919 396.113 59.715 398.381C60.938 400.649 62.6058 402.419 64.7184 403.691C66.8309 404.964 69.1658 405.6 71.7231 405.6C74.2804 405.6 76.5875 404.964 78.6445 403.691C80.757 402.419 82.4248 400.649 83.6479 398.381C84.8709 396.113 85.4825 393.513 85.4825 390.581Z"
          fill="white"/>
    <path d="M125.859 367.762C129.806 367.762 132.864 368.591 135.032 370.251C137.2 371.855 138.701 374.04 139.535 376.806C140.424 379.517 140.869 382.56 140.869 385.934V408.172C140.869 409.389 140.452 410.413 139.618 411.243C138.84 412.017 137.867 412.404 136.699 412.404C135.476 412.404 134.476 412.017 133.697 411.243C132.919 410.413 132.53 409.389 132.53 408.172V386.017C132.53 384.026 132.252 382.255 131.696 380.706C131.14 379.102 130.167 377.83 128.777 376.889C127.443 375.894 125.553 375.396 123.107 375.396C120.828 375.396 118.826 375.894 117.103 376.889C115.379 377.83 114.017 379.102 113.017 380.706C112.072 382.255 111.599 384.026 111.599 386.017V408.172C111.599 409.389 111.182 410.413 110.348 411.243C109.57 412.017 108.597 412.404 107.43 412.404C106.207 412.404 105.206 412.017 104.428 411.243C103.649 410.413 103.26 409.389 103.26 408.172V372.989C103.26 371.772 103.649 370.777 104.428 370.002C105.206 369.172 106.207 368.757 107.43 368.757C108.597 368.757 109.57 369.172 110.348 370.002C111.182 370.777 111.599 371.772 111.599 372.989V377.636L110.098 378.466C110.487 377.249 111.154 376.032 112.099 374.815C113.1 373.543 114.295 372.381 115.685 371.33C117.075 370.223 118.632 369.366 120.355 368.757C122.078 368.094 123.913 367.762 125.859 367.762Z"
          fill="white"/>
    <path d="M188.388 351C189.611 351 190.612 351.387 191.39 352.162C192.169 352.936 192.558 353.96 192.558 355.232V408.172C192.558 409.389 192.169 410.413 191.39 411.243C190.612 412.017 189.611 412.404 188.388 412.404C187.221 412.404 186.22 412.017 185.386 411.243C184.608 410.413 184.219 409.389 184.219 408.172V402.198L185.97 402.281C185.97 403.277 185.553 404.411 184.719 405.683C183.941 406.9 182.857 408.089 181.467 409.251C180.077 410.413 178.437 411.381 176.547 412.155C174.657 412.874 172.628 413.234 170.459 413.234C166.623 413.234 163.177 412.266 160.119 410.33C157.061 408.338 154.643 405.655 152.864 402.281C151.085 398.851 150.196 394.923 150.196 390.498C150.196 386.072 151.085 382.172 152.864 378.798C154.643 375.368 157.034 372.685 160.036 370.749C163.093 368.757 166.484 367.762 170.209 367.762C172.544 367.762 174.712 368.149 176.714 368.923C178.771 369.698 180.55 370.694 182.051 371.911C183.552 373.128 184.719 374.428 185.553 375.811C186.387 377.138 186.804 378.411 186.804 379.628L184.219 379.877V355.232C184.219 354.015 184.608 353.019 185.386 352.245C186.22 351.415 187.221 351 188.388 351ZM171.377 405.6C174.045 405.6 176.352 404.936 178.298 403.609C180.299 402.281 181.856 400.483 182.968 398.215C184.08 395.947 184.636 393.374 184.636 390.498C184.636 387.621 184.08 385.049 182.968 382.781C181.856 380.513 180.299 378.715 178.298 377.387C176.297 376.06 173.99 375.396 171.377 375.396C168.819 375.396 166.54 376.06 164.539 377.387C162.593 378.715 161.036 380.513 159.869 382.781C158.757 385.049 158.201 387.621 158.201 390.498C158.201 393.374 158.757 395.947 159.869 398.215C161.036 400.483 162.593 402.281 164.539 403.609C166.54 404.936 168.819 405.6 171.377 405.6Z"
          fill="white"/>
    <path d="M201.655 405.6C201.155 404.826 200.932 403.94 200.988 402.945C201.043 401.894 201.627 401.009 202.739 400.289C203.517 399.791 204.323 399.598 205.157 399.709C206.047 399.764 206.881 400.179 207.659 400.953C209.216 402.668 210.939 404.023 212.829 405.019C214.775 406.015 217.11 406.513 219.834 406.513C220.946 406.457 222.086 406.291 223.253 406.015C224.42 405.683 225.421 405.13 226.255 404.355C227.089 403.526 227.506 402.336 227.506 400.787C227.506 399.404 227.061 398.298 226.172 397.468C225.282 396.638 224.115 395.974 222.669 395.477C221.224 394.923 219.667 394.426 217.999 393.983C216.22 393.485 214.414 392.932 212.579 392.323C210.8 391.715 209.188 390.94 207.742 390C206.297 389.004 205.102 387.732 204.157 386.183C203.267 384.634 202.822 382.726 202.822 380.457C202.822 377.857 203.545 375.617 204.991 373.736C206.492 371.855 208.41 370.389 210.745 369.338C213.135 368.287 215.72 367.762 218.5 367.762C220.112 367.762 221.808 367.983 223.587 368.426C225.366 368.813 227.089 369.449 228.757 370.334C230.425 371.219 231.87 372.381 233.093 373.819C233.649 374.538 233.955 375.396 234.01 376.391C234.121 377.387 233.677 378.272 232.676 379.047C232.009 379.6 231.203 379.849 230.258 379.794C229.313 379.738 228.534 379.434 227.923 378.881C226.867 377.553 225.505 376.53 223.837 375.811C222.169 375.036 220.279 374.649 218.166 374.649C217.11 374.649 215.998 374.815 214.831 375.147C213.719 375.423 212.774 375.949 211.995 376.723C211.217 377.498 210.828 378.632 210.828 380.126C210.828 381.509 211.273 382.615 212.162 383.445C213.107 384.274 214.33 384.966 215.831 385.519C217.332 386.072 218.972 386.57 220.751 387.013C222.475 387.455 224.17 387.981 225.838 388.589C227.561 389.198 229.09 390 230.425 390.996C231.814 391.936 232.926 393.181 233.76 394.73C234.65 396.223 235.094 398.132 235.094 400.455C235.094 403.166 234.288 405.489 232.676 407.426C231.119 409.306 229.118 410.745 226.672 411.74C224.281 412.736 221.752 413.234 219.083 413.234C215.915 413.234 212.746 412.681 209.577 411.574C206.464 410.413 203.823 408.421 201.655 405.6Z"
          fill="white"/>
    <path d="M263.492 367.762C266.494 367.762 269.162 368.094 271.497 368.757C273.832 369.366 275.639 370.251 276.918 371.413C278.252 372.519 278.919 373.819 278.919 375.313C278.919 376.253 278.641 377.138 278.085 377.968C277.529 378.743 276.695 379.13 275.583 379.13C274.805 379.13 274.138 378.991 273.582 378.715C273.082 378.438 272.609 378.106 272.164 377.719C271.72 377.332 271.164 376.945 270.497 376.557C269.885 376.226 268.968 375.949 267.745 375.728C266.577 375.506 265.521 375.396 264.576 375.396C261.63 375.396 259.072 376.06 256.904 377.387C254.792 378.715 253.124 380.513 251.901 382.781C250.733 385.049 250.149 387.621 250.149 390.498C250.149 393.374 250.733 395.947 251.901 398.215C253.124 400.483 254.764 402.281 256.821 403.609C258.933 404.936 261.379 405.6 264.159 405.6C265.827 405.6 267.189 405.489 268.245 405.268C269.301 404.991 270.219 404.66 270.997 404.272C271.831 403.774 272.526 403.277 273.082 402.779C273.693 402.226 274.527 401.949 275.583 401.949C276.806 401.949 277.724 402.336 278.335 403.111C279.002 403.83 279.336 404.743 279.336 405.849C279.336 407.066 278.585 408.255 277.084 409.417C275.639 410.523 273.693 411.436 271.247 412.155C268.801 412.874 266.105 413.234 263.158 413.234C258.822 413.234 255.042 412.238 251.817 410.247C248.648 408.255 246.175 405.545 244.396 402.115C242.672 398.685 241.811 394.813 241.811 390.498C241.811 386.128 242.728 382.255 244.562 378.881C246.397 375.451 248.954 372.74 252.234 370.749C255.514 368.757 259.267 367.762 263.492 367.762Z"
          fill="white"/>
    <path d="M323.245 368.094C324.468 368.094 325.469 368.509 326.247 369.338C327.026 370.113 327.415 371.109 327.415 372.326V408.172C327.415 409.389 327.026 410.413 326.247 411.243C325.469 412.017 324.468 412.404 323.245 412.404C322.078 412.404 321.077 412.017 320.243 411.243C319.465 410.413 319.076 409.389 319.076 408.172V402.198L320.827 402.447C320.827 403.443 320.41 404.549 319.576 405.766C318.798 406.983 317.714 408.172 316.324 409.334C314.934 410.44 313.294 411.381 311.404 412.155C309.514 412.874 307.485 413.234 305.316 413.234C301.481 413.234 298.034 412.266 294.976 410.33C291.918 408.338 289.5 405.628 287.721 402.198C285.942 398.768 285.053 394.868 285.053 390.498C285.053 386.017 285.942 382.089 287.721 378.715C289.5 375.285 291.891 372.602 294.893 370.666C297.95 368.73 301.342 367.762 305.066 367.762C307.457 367.762 309.653 368.149 311.654 368.923C313.711 369.698 315.49 370.694 316.991 371.911C318.492 373.128 319.632 374.428 320.41 375.811C321.244 377.138 321.661 378.411 321.661 379.628L319.076 379.877V372.326C319.076 371.164 319.465 370.168 320.243 369.338C321.077 368.509 322.078 368.094 323.245 368.094ZM306.234 405.6C308.847 405.6 311.154 404.936 313.155 403.609C315.156 402.281 316.713 400.483 317.825 398.215C318.937 395.891 319.493 393.319 319.493 390.498C319.493 387.621 318.937 385.049 317.825 382.781C316.713 380.513 315.156 378.715 313.155 377.387C311.154 376.06 308.847 375.396 306.234 375.396C303.676 375.396 301.397 376.06 299.396 377.387C297.45 378.715 295.893 380.513 294.726 382.781C293.614 385.049 293.058 387.621 293.058 390.498C293.058 393.319 293.614 395.891 294.726 398.215C295.893 400.483 297.45 402.281 299.396 403.609C301.397 404.936 303.676 405.6 306.234 405.6Z"
          fill="white"/>
    <path d="M361.195 368.011C365.087 368.011 368.534 368.979 371.536 370.915C374.593 372.851 377.012 375.506 378.791 378.881C380.57 382.2 381.459 386.072 381.459 390.498C381.459 394.923 380.57 398.851 378.791 402.281C377.012 405.655 374.621 408.311 371.619 410.247C368.617 412.183 365.226 413.151 361.446 413.151C359.333 413.151 357.332 412.819 355.442 412.155C353.551 411.491 351.884 410.634 350.438 409.583C348.993 408.477 347.798 407.315 346.852 406.098C345.963 404.881 345.407 403.747 345.185 402.696L347.436 401.617V424.768C347.436 425.985 347.019 426.981 346.185 427.755C345.407 428.585 344.434 429 343.267 429C342.044 429 341.043 428.585 340.265 427.755C339.486 426.981 339.097 425.985 339.097 424.768V372.823C339.097 371.662 339.486 370.666 340.265 369.836C341.043 369.006 342.044 368.591 343.267 368.591C344.434 368.591 345.407 369.006 346.185 369.836C347.019 370.666 347.436 371.662 347.436 372.823V378.549L346.102 377.802C346.269 376.751 346.797 375.672 347.686 374.566C348.576 373.404 349.688 372.326 351.022 371.33C352.412 370.334 353.968 369.532 355.692 368.923C357.471 368.315 359.305 368.011 361.195 368.011ZM360.278 375.645C357.61 375.645 355.275 376.309 353.273 377.636C351.328 378.909 349.799 380.651 348.687 382.864C347.575 385.077 347.019 387.621 347.019 390.498C347.019 393.319 347.575 395.891 348.687 398.215C349.799 400.483 351.328 402.281 353.273 403.609C355.275 404.881 357.61 405.517 360.278 405.517C362.891 405.517 365.17 404.881 367.116 403.609C369.062 402.281 370.591 400.483 371.703 398.215C372.87 395.891 373.454 393.319 373.454 390.498C373.454 387.677 372.87 385.16 371.703 382.947C370.591 380.679 369.062 378.909 367.116 377.636C365.17 376.309 362.891 375.645 360.278 375.645Z"
          fill="white"/>
    <path d="M411.321 413.234C406.706 413.234 402.704 412.294 399.312 410.413C395.921 408.477 393.281 405.849 391.39 402.53C389.556 399.155 388.639 395.311 388.639 390.996C388.639 386.128 389.611 381.979 391.557 378.549C393.559 375.064 396.144 372.409 399.312 370.583C402.481 368.702 405.845 367.762 409.403 367.762C412.127 367.762 414.712 368.315 417.158 369.421C419.604 370.472 421.772 371.966 423.662 373.902C425.608 375.783 427.137 378.023 428.249 380.623C429.361 383.168 429.944 385.962 430 389.004C429.944 390.111 429.5 391.023 428.666 391.743C427.832 392.462 426.859 392.821 425.747 392.821H393.308L391.307 385.768H422.662L421.077 387.262V385.187C420.966 383.251 420.327 381.564 419.159 380.126C417.992 378.632 416.546 377.498 414.823 376.723C413.1 375.894 411.293 375.479 409.403 375.479C407.735 375.479 406.123 375.755 404.566 376.309C403.065 376.806 401.703 377.636 400.48 378.798C399.312 379.96 398.367 381.509 397.645 383.445C396.978 385.326 396.644 387.677 396.644 390.498C396.644 393.54 397.283 396.196 398.562 398.464C399.841 400.732 401.564 402.502 403.732 403.774C405.9 404.991 408.291 405.6 410.904 405.6C412.961 405.6 414.656 405.406 415.99 405.019C417.325 404.577 418.437 404.051 419.326 403.443C420.216 402.834 420.994 402.253 421.661 401.7C422.495 401.202 423.329 400.953 424.163 400.953C425.163 400.953 425.997 401.313 426.664 402.032C427.331 402.696 427.665 403.498 427.665 404.438C427.665 405.655 427.054 406.762 425.83 407.757C424.329 409.196 422.245 410.468 419.576 411.574C416.963 412.681 414.211 413.234 411.321 413.234Z"
          fill="white"/>
    <g clip-path="url(#clip0_240_1223)">
        <rect x="59" width="312" height="312" rx="156" fill="white"/>
        <g clip-path="url(#clip1_240_1223)">
            <path fill-rule="evenodd" clip-rule="evenodd"
                  d="M120.394 137.901C119.905 136.554 119.436 135.301 119.094 133.94L111.134 111.697C108.603 104.625 112.261 96.8316 119.306 94.2883L145.196 84.9418L145.141 85.0454L196.383 66.324C224.064 56.2109 254.642 70.7442 264.39 98.6467C267.636 107.937 268.156 117.519 266.375 126.517C288.302 125.741 309.184 139.052 317.094 160.866C326.923 187.973 312.999 217.945 285.994 227.811L233.276 247.072C211.989 254.849 188.451 243.832 180.704 222.464L167.595 186.311C150.469 186.704 134.287 176.218 128.124 159.221L120.394 137.901ZM226.253 138.471L212.097 143.643L170.925 157.702C164.116 160.027 156.704 156.462 154.244 149.678L146.514 128.358C146.476 128.255 146.44 128.151 146.405 128.047L141.806 115.906L168.138 106.336L205.89 92.5433C219.025 87.7446 233.534 94.6407 238.16 107.881C242.326 119.805 237.029 132.741 226.253 138.471ZM221.328 169.963L194.766 179.667L206.824 212.921C209.321 219.808 216.908 223.359 223.769 220.852L276.487 201.592C289.066 196.996 295.552 183.035 290.973 170.409C286.395 157.782 272.487 151.272 259.908 155.868L237.259 164.143C235.412 165.025 233.494 165.808 231.51 166.486L221.328 169.963Z"
                  fill="#8358F9"/>
        </g>
    </g>
    <defs>
        <clipPath id="clip0_240_1223">
            <rect width="312" height="312" fill="white" transform="translate(59)"/>
        </clipPath>
        <clipPath id="clip1_240_1223">
            <rect width="210.857" height="210.286" fill="white" transform="translate(109.857 50.8571)"/>
        </clipPath>
    </defs>
</svg>
